<svg xmlns="http://www.w3.org/2000/svg" width="26" height="26" viewBox="0 0 26 26" fill="none"><rect width="26" height="26" rx="6" fill="#FFE5B3"></rect><path d="M15 5V9H19L15 5ZM14 9V5H8.5C7.67156 5 7 5.67156 7 6.5V19.5C7 20.3281 7.67156 21 8.5 21H17.5C18.3284 21 19 20.3284 19 19.5V10H15.0281C14.4469 10 14 9.55313 14 9ZM15.5 18H10.5C10.225 18 10 17.775 10 17.5C10 17.225 10.225 17 10.5 17H15.5C15.7761 17 16 17.2238 16 17.5C16 17.775 15.775 18 15.5 18ZM15.5 16H10.5C10.225 16 10 15.775 10 15.5C10 15.225 10.225 15 10.5 15H15.5C15.7761 15 16 15.2238 16 15.5C16 15.775 15.775 16 15.5 16ZM16 13.5C16 13.775 15.775 14 15.5 14H10.5C10.225 14 10 13.775 10 13.5C10 13.225 10.225 13 10.5 13H15.5C15.775 13 16 13.225 16 13.5Z" fill="#E39806"></path></svg>