<svg xmlns="http://www.w3.org/2000/svg" width="26" height="26" viewBox="0 0 26 26" fill="none"><rect width="26" height="26" rx="6" fill="#E9E3FF"></rect><path d="M13 16C12.4834 16 11.9669 15.8306 11.5262 15.4872L5 10.4125V17.5C5 18.3281 5.67156 19 6.5 19H19.5C20.3284 19 21 18.3284 21 17.5V10.4125L14.475 15.4906C14.0344 15.8313 13.5156 16 13 16ZM5.50906 9.54063L12.1403 14.7C12.6463 15.0937 13.355 15.0937 13.8609 14.7L20.4922 9.54063C20.7844 9.29063 21 8.90625 21 8.5C21 7.67156 20.3281 7 19.5 7H6.5C5.67156 7 5 7.67156 5 8.5C5 8.90625 5.18781 9.29063 5.50906 9.54063Z" fill="#6F4CFC"></path></svg>